<svg fill="none" height="20" viewBox="0 0 20 20" width="20" xmlns="http://www.w3.org/2000/svg"><path d="m10 5.5c-.89002 0-1.76005.26392-2.50007.75839-.74002.49446-1.31679 1.19727-1.65739 2.01953-.34059.82227-.42971 1.72708-.25607 2.59998.17363.8729.60221 1.6747 1.23155 2.3041.62934.6293 1.43116 1.0579 2.30407 1.2315.87292.1737 1.77771.0846 2.60001-.256.8222-.3406 1.525-.9174 2.0195-1.6574.4945-.7401.7584-1.6101.7584-2.5001-.0012-1.19309-.4757-2.33697-1.3194-3.18061-.8436-.84364-1.9875-1.31815-3.1806-1.31939zm0 7.5c-.59334 0-1.17336-.1759-1.66671-.5056-.49335-.3296-.87787-.7982-1.10493-1.3463-.22706-.5482-.28647-1.15143-.17072-1.73337.11576-.58194.40148-1.11649.82104-1.53605s.95411-.70528 1.53605-.82104c.58194-.11575 1.18517-.05634 1.73337.17072.5481.22706 1.0167.61158 1.3463 1.10493.3297.49335.5056 1.07337.5056 1.66671 0 .7956-.3161 1.5587-.8787 2.1213s-1.3257.8787-2.1213.8787zm4.5-12.75h-9c-1.39193.001489-2.72642.555091-3.71067 1.53933-.984239.98425-1.537841 2.31874-1.53933 3.71067v9c.001489 1.3919.555091 2.7264 1.53933 3.7107.98425.9842 2.31874 1.5378 3.71067 1.5393h9c1.3919-.0015 2.7264-.5551 3.7107-1.5393.9842-.9843 1.5378-2.3188 1.5393-3.7107v-9c-.0015-1.39193-.5551-2.72642-1.5393-3.71067-.9843-.984239-2.3188-1.537841-3.7107-1.53933zm3.75 14.25c0 .9946-.3951 1.9484-1.0984 2.6516-.7032.7033-1.657 1.0984-2.6516 1.0984h-9c-.99456 0-1.94839-.3951-2.65165-1.0984-.70326-.7032-1.09835-1.657-1.09835-2.6516v-9c0-.99456.39509-1.94839 1.09835-2.65165s1.65709-1.09835 2.65165-1.09835h9c.9946 0 1.9484.39509 2.6516 1.09835.7033.70326 1.0984 1.65709 1.0984 2.65165zm-2.25-9.375c0 .2225-.066.44001-.1896.62502-.1236.185-.2993.3292-.5049.41434-.2055.08515-.4317.10743-.65.06402-.2182-.0434-.4187-.15055-.576-.30788-.1573-.15734-.2645-.35779-.3079-.57602s-.0211-.44443.064-.65c.0852-.20557.2294-.38127.4144-.50488.185-.12362.4025-.1896.625-.1896.2984 0 .5845.11853.7955.3295.211.21098.3295.49713.3295.7955z" fill="#fff"/></svg>