<svg width="40" height="36" viewBox="0 0 40 36" fill="none" xmlns="http://www.w3.org/2000/svg">
<path d="M36.1758 16.3034C36.1716 16.1098 36.1177 15.9204 36.0191 15.7529C35.7419 15.2768 35.132 14.9739 34.2077 14.8523C33.6729 14.782 33.17 14.6959 32.7131 14.5963C31.3124 14.2889 29.8771 14.1628 28.4434 14.2211C27.2371 14.2658 26.0341 14.3734 24.8394 14.5433C24.5863 14.5812 24.2923 14.6274 23.9664 14.6789C21.546 15.0598 16.6218 15.8345 13.5632 15.2373C13.1478 14.4641 13.0762 13.7732 13.3507 13.1819C13.9469 11.8978 15.9654 11.2961 16.6962 11.1167C17.5613 12.4194 18.6609 13.2211 19.9673 13.501C22.3971 14.0215 24.6352 12.5387 24.7293 12.4755C24.8012 12.427 24.8554 12.3572 24.8841 12.2761C24.9128 12.1951 24.9144 12.1071 24.8887 12.0252C24.863 11.9432 24.8113 11.8714 24.7412 11.8204C24.6712 11.7695 24.5864 11.7419 24.4994 11.7419C24.2785 11.7265 24.0655 11.655 23.8811 11.5343C23.4743 11.2907 23.1416 10.9435 22.9179 10.5294C22.0853 9.01721 20.8833 8.45347 20.1929 8.24699C21.5981 4.92959 19.771 2.76128 19.6887 2.66659L19.6775 2.65471C19.2368 2.18686 19.4846 1.33871 19.4869 1.33158C19.51 1.25692 19.5105 1.17724 19.4884 1.10229C19.4663 1.02734 19.4226 0.960347 19.3625 0.909498C19.3024 0.858648 19.2286 0.826141 19.1501 0.815945C19.0716 0.805748 18.9918 0.818304 18.9204 0.85208C16.9798 1.76771 15.8242 3.47352 15.5781 5.78487C15.4906 6.66229 15.522 7.54729 15.6715 8.41653C14.7354 8.3546 13.7956 8.37447 12.8631 8.47593C12.4945 8.51157 5.49695 9.25101 2.39126 14.7022C1.0244 17.1013 0.896632 19.9817 2.04918 22.4071C2.98935 24.386 4.54365 25.9087 6.67096 26.9413C6.0492 27.5902 5.53873 28.3345 5.15958 29.145C3.84346 31.9554 1.0614 31.543 0.944484 31.5241C0.85827 31.5098 0.769655 31.5231 0.691714 31.5622C0.613772 31.6012 0.550633 31.6639 0.511611 31.7411C0.472589 31.8182 0.459752 31.9056 0.474993 31.9905C0.490235 32.0754 0.532748 32.1531 0.59626 32.2124C1.91877 33.4456 3.60589 34.1721 5.2466 34.0578C8.35977 33.841 10.908 31.1902 11.8584 30.0494C12.2498 29.5734 12.6844 29.1335 13.1569 28.7353C13.1747 28.737 13.1925 28.7376 13.2103 28.7371C15.1894 28.6127 17.7275 28.7478 17.7468 28.749C17.8138 28.7536 17.8794 28.7568 17.9461 28.7609C17.188 29.2906 16.5614 29.9828 16.1134 30.7854C15.4585 31.9434 13.7807 34.3614 11.1847 34.3787C11.6521 34.0307 12.0175 33.5667 12.2436 33.0341C12.4697 32.5016 12.5485 31.9194 12.4718 31.347C12.4668 31.2939 12.451 31.2423 12.4256 31.1952C12.4001 31.1482 12.3653 31.1066 12.3234 31.0729C12.2814 31.0392 12.2331 31.014 12.1811 30.9989C12.1292 30.9839 12.0748 30.9791 12.021 30.985C11.9672 30.9908 11.9151 31.0072 11.8678 31.0331C11.8205 31.059 11.7789 31.094 11.7454 31.1359C11.7119 31.1778 11.6872 31.2259 11.6728 31.2773C11.6584 31.3287 11.6545 31.3825 11.6613 31.4354C11.7383 32.0351 11.5958 32.6422 11.2595 33.1477C10.8953 33.6607 10.3622 34.0336 9.75074 34.2031C9.66151 34.2217 9.5812 34.2693 9.52265 34.3383C9.4641 34.4072 9.43069 34.4935 9.42776 34.5834C9.42483 34.6732 9.45255 34.7614 9.50649 34.8339C9.56043 34.9064 9.63748 34.959 9.72531 34.9833C10.1994 35.1167 10.6898 35.1854 11.1828 35.1875C14.1944 35.1875 16.0903 32.4771 16.8258 31.1763C17.2538 30.4027 17.8744 29.7491 18.6292 29.2769C18.915 29.1033 19.2148 28.9532 19.5255 28.828C19.5303 28.826 19.5343 28.823 19.539 28.8208C19.6665 28.8224 19.7942 28.8242 19.9202 28.8242C28.1882 28.8242 33.1864 25.4552 35.04 23.9122C35.481 23.5447 36.0395 23.3428 36.6169 23.3419H37.6264C38.0497 23.3475 38.4649 23.2279 38.8185 22.9986C39.7174 22.4003 39.5927 21.4352 39.3712 20.9246C39.3866 20.3102 39.2875 17.4242 36.1758 16.3034ZM11.2283 29.5395C10.5395 30.366 8.06928 33.0774 5.19538 33.2557C4.08453 33.3246 3.01575 33.0083 2.00567 32.3141C3.1716 32.178 4.90923 31.5977 5.9034 29.4746C5.91437 29.4499 7.02497 26.9937 8.76356 26.5653C8.86771 26.5388 8.95699 26.4728 9.01197 26.3816C9.06695 26.2905 9.08317 26.1817 9.0571 26.0788C9.03102 25.9759 8.96477 25.8874 8.87276 25.8324C8.78076 25.7775 8.67046 25.7606 8.56589 25.7855C8.12477 25.9001 7.70998 26.0969 7.34391 26.3653C5.22551 25.4139 3.69171 23.9691 2.7877 22.0663C1.74628 19.8752 1.86392 17.2694 3.10229 15.0959C6.0126 9.98725 12.8776 9.28202 12.9466 9.27561C12.9484 9.27561 12.95 9.27478 12.9518 9.27454C12.9536 9.2743 12.9553 9.27454 12.957 9.27454C12.9743 9.27252 14.6948 9.07186 16.1253 9.27347C16.192 9.28277 16.2599 9.27568 16.3231 9.25283C16.3863 9.22998 16.4428 9.19209 16.4875 9.14252C16.5322 9.09295 16.5638 9.03324 16.5795 8.96872C16.5951 8.90419 16.5944 8.83686 16.5772 8.7727C16.3544 7.81342 16.2916 6.82477 16.3912 5.84558C16.5829 4.09606 17.3256 2.78944 18.6024 1.95079C18.6017 2.40696 18.7683 2.84802 19.0713 3.19278C19.1884 3.33297 20.7675 5.31547 19.2473 8.35392C19.218 8.41242 19.2036 8.47706 19.2053 8.54228C19.2071 8.60749 19.2249 8.67131 19.2573 8.72821C19.2896 8.78512 19.3355 8.8334 19.3911 8.86889C19.4466 8.90438 19.5101 8.92601 19.576 8.9319C19.5921 8.93333 21.2009 9.09752 22.2017 10.9133C22.4954 11.4546 22.9316 11.9079 23.4646 12.2254C23.4689 12.2278 23.4732 12.2304 23.4776 12.233C22.6925 12.5865 21.4239 12.9934 20.1354 12.7149C18.9783 12.4654 18.0029 11.7051 17.2368 10.4543C17.1938 10.3842 17.1301 10.3287 17.0543 10.2953C16.9784 10.2618 16.894 10.252 16.8124 10.2672C16.6783 10.2919 13.5164 10.8982 12.6103 12.8459C12.309 13.495 12.2906 14.204 12.5539 14.9619C12.1408 14.8212 11.7632 14.5947 11.4467 14.2976C11.2082 14.0673 11.0273 13.7857 10.918 13.4748C10.9016 13.4243 10.8752 13.3776 10.8403 13.3373C10.8055 13.2969 10.7629 13.2638 10.7151 13.2397C10.6672 13.2157 10.6149 13.2012 10.5614 13.1971C10.5078 13.193 10.4539 13.1994 10.4028 13.2159C10.3518 13.2324 10.3045 13.2587 10.2638 13.2933C10.2231 13.3278 10.1897 13.37 10.1656 13.4173C10.1415 13.4647 10.1271 13.5163 10.1233 13.5691C10.1194 13.6219 10.1263 13.675 10.1433 13.7252C10.2913 14.1541 10.5386 14.543 10.8656 14.8614C13.1904 17.1891 20.2841 16.0725 24.0952 15.4726C24.4186 15.4216 24.7099 15.3758 24.9617 15.3382C26.1275 15.1726 27.3014 15.0679 28.4784 15.0244C29.8412 14.9689 31.2056 15.0887 32.537 15.3808C33.0163 15.4852 33.5421 15.5755 34.0997 15.6488C34.9513 15.7607 35.1832 15.9664 35.3593 16.2985C35.1677 16.3592 34.97 16.3991 34.7696 16.4173C34.445 16.4485 34.1177 16.441 33.7949 16.395C31.6648 16.1315 29.5026 16.47 27.5602 17.3711C26.2083 18.0205 25.0202 18.9585 24.0821 20.1171C23.1966 21.1892 20.7312 23.6862 16.9725 23.7158C16.8655 23.718 16.7637 23.7615 16.689 23.837C16.6143 23.9124 16.5727 24.0138 16.5731 24.1192C16.5736 24.2247 16.616 24.3257 16.6913 24.4006C16.7666 24.4755 16.8687 24.5182 16.9757 24.5195H16.9791C21.0841 24.4873 23.7563 21.7848 24.7144 20.6245C25.5767 19.5581 26.6692 18.6945 27.9124 18.0962C29.711 17.2611 31.7134 16.9474 33.686 17.1916C34.074 17.2462 34.4672 17.2545 34.8573 17.2164C35.1653 17.1899 35.468 17.1203 35.7563 17.0099C37.7473 17.6671 38.3341 19.1247 38.4994 20.0775C37.7912 19.6053 36.9609 19.3422 36.1061 19.3192H36.1013C31.5738 18.9302 27.7987 22.3359 27.5072 22.6061C24.1374 25.2799 18.6479 25.9565 18.5932 25.9631C18.5852 25.9641 18.577 25.9654 18.5691 25.9667L15.7262 26.4743C15.5734 26.4971 14.3408 26.7169 12.6923 28.069C12.1578 28.5121 11.6676 29.0045 11.2283 29.5395ZM34.4967 23.3126C33.4036 24.2038 32.2094 24.9672 30.938 25.5873C31.2714 25.0591 31.5467 24.4973 31.7592 23.9115C31.7964 23.8114 31.7917 23.7008 31.7462 23.6042C31.7007 23.5075 31.6181 23.4326 31.5166 23.3959C31.4663 23.3778 31.4129 23.3695 31.3594 23.3717C31.3059 23.3739 31.2534 23.3865 31.2048 23.4087C31.1067 23.4535 31.0307 23.5349 30.9935 23.635C30.1739 25.8409 29.0875 26.3931 29.0603 26.4064C29.0566 26.408 29.0538 26.4105 29.0503 26.4122C28.3021 26.6979 27.5393 26.9446 26.7649 27.1514C27.258 26.5431 27.6306 25.8489 27.8634 25.1049C28.5758 22.9525 29.3459 22.223 29.4597 22.124C30.3432 21.5267 31.2971 21.0373 32.3004 20.6668C32.0526 21.0201 31.8394 21.3958 31.6637 21.7888C31.6402 21.8367 31.6269 21.8888 31.6245 21.9419C31.6221 21.9951 31.6308 22.0482 31.65 22.0979C31.6692 22.1476 31.6985 22.193 31.7361 22.2311C31.7737 22.2693 31.8188 22.2995 31.8686 22.3199C31.9685 22.3497 32.0755 22.3461 32.173 22.3095C32.2706 22.273 32.3531 22.2056 32.4076 22.118C33.092 20.6166 33.8408 20.2692 33.961 20.2215C34.6493 20.0971 35.3514 20.0637 36.0487 20.1222C36.0636 20.1235 36.0797 20.1238 36.0948 20.1237H36.1058C35.8506 20.5295 35.6591 20.9711 35.5378 21.4333C35.3366 22.1281 34.981 22.7701 34.4967 23.3126ZM22.6782 27.8866C22.9306 27.5978 23.1374 27.2731 23.2916 26.9235C23.2935 26.919 23.2956 26.9143 23.2974 26.9097C23.3015 26.8997 23.6943 25.9339 24.2496 25.3258C25.4318 24.8736 26.553 24.2795 27.5878 23.5569C27.3994 23.9812 27.2327 24.4144 27.0883 24.8551C26.3644 27.0427 25.0585 27.523 24.9222 27.5678C24.2109 27.701 23.464 27.8099 22.6782 27.8869V27.8866ZM14.3553 27.8874C15.2481 27.366 15.8291 27.2723 15.8476 27.2696C15.8504 27.2696 15.8529 27.2681 15.8557 27.2677C15.8585 27.2674 15.8624 27.2677 15.8659 27.2668L18.4671 26.8022C18.2057 27.2485 17.8483 27.633 17.42 27.9286C16.8218 27.9037 15.6015 27.8632 14.3553 27.8878V27.8874ZM18.586 27.9898C18.9553 27.6001 19.2464 27.1451 19.4443 26.6489C20.6284 26.4453 21.7965 26.1595 22.9398 25.7935C22.7915 26.0569 22.6587 26.3284 22.542 26.6068C22.1155 27.5589 21.4297 27.9077 21.2402 27.9889C20.3942 28.0272 19.5099 28.0307 18.5858 27.9902L18.586 27.9898ZM38.3623 22.3328C38.1435 22.472 37.8874 22.5436 37.627 22.5384H36.6169C36.3919 22.5391 36.1675 22.563 35.9475 22.6097C36.1041 22.3009 36.2302 21.978 36.324 21.6454C36.5531 20.8256 36.8744 20.4181 37.0145 20.2706C37.6271 20.4433 38.1812 20.7758 38.6182 21.2329C38.6903 21.399 38.8937 21.9792 38.362 22.3331L38.3623 22.3328Z" fill="#0D2936"/>
</svg>
